<?xml version="1.0" encoding="utf-8"?>
<!-- Generator: Adobe Illustrator 16.0.4, SVG Export Plug-In . SVG Version: 6.00 Build 0)  -->
<!DOCTYPE svg PUBLIC "-//W3C//DTD SVG 1.1//EN" "http://www.w3.org/Graphics/SVG/1.1/DTD/svg11.dtd">
<svg version="1.1" id="Layer_1" xmlns="http://www.w3.org/2000/svg" xmlns:xlink="http://www.w3.org/1999/xlink" x="0px" y="0px"
	 width="989px" height="400px" viewBox="0 0 989 400" enable-background="new 0 0 989 400" xml:space="preserve">
<g>
	<path fill="#FFFFFF" d="M173.201,164h-8.919H90.64c-3.92,0-7.142,3.102-7.409,6.969l8.146,57.034
		c0.061,0.427,0.095,1.004,0.095,1.429c0,4.096,3.327,7.568,7.424,7.568h66.047c4.096,0,7.426-3.461,7.426-7.557
		c0-0.426,0.034-0.926,0.095-1.354l3.94-27.634l4.204-29.472C180.342,167.118,177.12,164,173.201,164z"/>
	<path fill="#FFFFFF" d="M303.845,164h-52.383h-8.921c-3.921,0-7.148,3.102-7.414,6.969l4.203,29.432l3.938,27.615
		c0.069,0.428,0.097,0.998,0.097,1.422c0,4.098,3.335,7.562,7.433,7.562h53.076c-2.264-11.846-3.463-24.068-3.463-36.575
		C300.411,187.972,301.6,175.799,303.845,164z"/>
	<path fill="#FFFFFF" d="M250.798,255c-13.879,0-25.204-11.145-25.585-24.93l-4.227-29.624c0-5.021-5.871-9.094-13.117-9.094
		s-13.116,4.059-13.116,9.078l-4.23,29.643C190.141,243.859,178.813,255,164.944,255H98.896c-13.869,0-25.197-11.145-25.582-24.93
		l-5.628-39.204c-3.027-0.736-5.187-2.273-5.187-4.065v-27.24c0-2.444,3.879-4.352,8.684-4.476c4.7-5.527,11.651-9.085,19.457-9.085
		h82.561c7.789,0,14.689,4,19.386,9h30.568c4.701-5,11.6-9,19.387-9h65.631c8.382-28.689,23.213-54.624,42.831-76.122
		C315.576,31.056,264.568,6.696,207.869,6.696C100.874,6.696,14.14,93.427,14.14,200.425c0,106.991,86.733,193.729,193.729,193.729
		c56.699,0,107.707-24.362,143.134-63.188c-19.583-21.46-34.395-47.342-42.785-75.969L250.798,255L250.798,255z"/>
	<path fill="#FFFFFF" d="M664.333,293.046c15.007-27.517,23.538-59.071,23.538-92.621c0-3.563-0.104-7.103-0.293-10.62
		c-4.438-5.913-7.064-13.225-7.064-21.147c0-4.382,0.812-8.578,2.282-12.456c-2.483-10.64-5.845-20.942-10.002-30.827
		c-14.077,17.333-17.737,43.844-22.922,62.982C629.544,278.139,649.201,291.423,664.333,293.046z"/>
	<path fill="#FFFFFF" d="M325.094,164c3.928,0,7.148,3.133,7.415,7l-8.151,57.09c-0.052,0.428-0.088,0.93-0.088,1.354
		c0,4.098-3.333,7.559-7.431,7.559h-12.965c1.167,6.105,2.619,12.109,4.344,18h8.621c13.87,0,25.288-11.145,25.669-24.93
		l5.68-39.226c3.023-0.736,5.312-2.251,5.312-4.043v-27.24c0-2.444-4.001-4.352-8.807-4.476c-4.701-5.527-11.786-9.085-19.599-9.085
		h-16.921c-1.72,5.889-3.166,11.894-4.328,18L325.094,164L325.094,164z"/>
	<path fill="none" d="M324.27,229.443c0-0.426,0.036-0.926,0.088-1.354l8.151-57.09c-0.267-3.867-3.487-7-7.415-7h-21.249
		c-2.245,11.799-3.434,23.972-3.434,36.425c0,12.506,1.199,24.729,3.463,36.575h12.965C320.937,237,324.27,233.539,324.27,229.443z"
		/>
	<path fill="#FFFFFF" d="M780.411,6.696c-56.698,0-107.706,24.36-143.134,63.183c14.798,16.216,26.877,34.955,35.517,55.498
		c8.578-10.562,21.021-17.718,40.041-17.718c39.724,0,30.443,9.342,59.417,9.342h8.159h8.162c28.979,0,19.698-9.342,59.42-9.342
		c50.232,0,54.621,49.931,62.966,80.73c25.727,113.632-12.602,104.7-24.73,104.7c-12.125,0-32.483-21.946-50.675-44.491
		c-17.528-21.701-43.192-20.24-55.143-20.332c-11.949,0.092-37.603-1.369-55.138,20.332c-18.185,22.545-38.543,44.491-50.674,44.491
		c-2.547,0-6.246,0.39-10.269-0.042c-7.49,13.732-16.594,26.458-27.056,37.923c35.428,38.823,86.436,63.188,143.134,63.188
		c106.992,0,193.729-86.738,193.729-193.729C974.141,93.427,887.403,6.696,780.411,6.696z"/>
	<path fill="#FFFFFF" d="M844.128,204.271c19.979,0,36.171-15.934,36.171-35.613c0-19.652-16.188-35.598-36.171-35.598
		c-19.961,0-36.165,15.945-36.165,35.598C807.963,188.339,824.167,204.271,844.128,204.271z M859.321,163.289
		c7.689,0,13.921,6.237,13.921,13.925s-6.229,13.926-13.921,13.926c-7.688,0-13.925-6.239-13.925-13.926
		C845.396,169.526,851.635,163.289,859.321,163.289z M831.479,144.724c7.685,0,13.92,6.239,13.92,13.927
		c0,7.691-6.235,13.921-13.92,13.921c-7.688,0-13.926-6.229-13.926-13.921C817.553,150.963,823.789,144.724,831.479,144.724z"/>
	<path fill="#FFFFFF" d="M716.686,204.271c19.979,0,36.166-15.934,36.166-35.613c0-19.652-16.188-35.598-36.166-35.598
		c-15.525,0-28.759,9.629-33.89,23.142c2.54,10.877,4.161,22.106,4.782,33.603C694.165,198.582,704.746,204.271,716.686,204.271z
		 M693.5,160h14v-14h18v14h14v18h-14v14h-18v-14h-14V160z"/>
	<path fill="none" d="M680.514,168.658c0,7.922,2.627,15.234,7.064,21.147c-0.621-11.496-2.242-22.725-4.782-33.603
		C681.323,160.081,680.514,164.276,680.514,168.658z"/>
	<g>
		<path fill="none" d="M377.297,267.882c2.016,3.493,5.021,6.289,8.868,8.417c9.007-21.135,14.356-44.197,15.276-68.396
			c-0.156-0.152-0.319-0.31-0.476-0.465C378.973,231.116,369.096,253.674,377.297,267.882z"/>
		<path fill="none" d="M377.297,132.962c-8.194,14.193,1.703,36.73,23.688,60.392c0.147-0.149,0.307-0.299,0.457-0.448
			c-0.925-24.188-6.273-47.235-15.274-68.357C382.318,126.675,379.313,129.469,377.297,132.962z"/>
		<path fill="none" d="M368.305,273.074c-10.239-17.744,0.781-45.029,25.958-72.67c-25.195-27.633-36.196-54.884-25.958-72.628
			c3.03-5.246,7.723-9.29,13.76-12.191c-8.162-16.725-18.65-32.106-31.062-45.707c-19.618,21.498-34.449,47.433-42.831,76.122
			h16.921c7.813,0,14.898,3.558,19.599,9.085c4.806,0.124,8.807,2.032,8.807,4.476v27.24c0,1.792-2.289,3.307-5.312,4.043
			l-5.68,39.228c-0.381,13.784-11.799,24.93-25.669,24.93h-8.621c8.39,28.627,23.203,54.509,42.785,75.969
			c12.411-13.601,22.899-28.979,31.061-45.704C376.028,282.363,371.335,278.32,368.305,273.074z"/>
		<path fill="none" d="M610.982,267.882c8.193-14.192-1.702-36.731-23.686-60.391c-0.148,0.149-0.309,0.3-0.459,0.45
			c0.924,24.185,6.273,47.231,15.274,68.354C605.961,274.17,608.967,271.374,610.982,267.882z"/>
		<path fill="none" d="M649.872,188.358c5.185-19.138,8.845-45.648,22.922-62.982c-8.64-20.543-20.719-39.282-35.517-55.498
			c-12.411,13.6-22.9,28.98-31.062,45.705c6.036,2.901,10.729,6.946,13.758,12.192c10.242,17.744-0.776,45.021-25.958,72.662
			c25.196,27.634,36.2,54.897,25.958,72.637c-3.027,5.246-7.722,9.289-13.758,12.189c8.161,16.725,18.65,32.104,31.062,45.703
			c10.462-11.465,19.563-24.188,27.056-37.923C649.201,291.423,629.544,278.139,649.872,188.358z"/>
		<path fill="none" d="M587.311,193.407c21.994-23.679,31.875-46.24,23.675-60.445c-2.019-3.492-5.021-6.287-8.868-8.414
			c-9.007,21.134-14.357,44.196-15.276,68.396C586.994,193.099,587.156,193.252,587.311,193.407z"/>
		<g>
			<path fill="#FFFFFF" d="M494.139,335.339c16.404,0,30.996-19.817,40.502-50.696c-12.855-3.416-26.494-8.377-40.4-14.531
				c-13.982,6.229-27.641,11.087-40.559,14.524C463.183,315.505,477.75,335.339,494.139,335.339z"/>
			<path fill="#FFFFFF" d="M444.931,243.064c1.479,11.49,3.562,22.244,6.091,32.131c9.778-2.732,20.102-6.373,30.72-10.81
				c-6.22-3.086-12.48-6.421-18.735-10.036C456.72,250.725,450.75,246.932,444.931,243.064z"/>
			<path fill="#FFFFFF" d="M543.296,243.094c-5.795,3.852-11.755,7.639-18.021,11.256c-6.263,3.617-12.522,6.883-18.761,9.979
				c10.638,4.444,21.02,8.149,30.81,10.884C539.849,265.371,541.83,254.529,543.296,243.094z"/>
			<path fill="#FFFFFF" d="M546.801,123.241c3.471,12.899,6.123,27.117,7.735,42.318c12.146,8.841,22.972,18.088,32.303,27.385
				c0.919-24.2,6.271-47.262,15.276-68.396C590.316,118.023,570.561,117.805,546.801,123.241z"/>
			<path fill="#FFFFFF" d="M580.451,200.473c-7.292-7.146-15.565-14.321-24.781-21.344c0.438,6.968,0.746,14.041,0.746,21.296
				c0,7.226-0.244,14.308-0.682,21.246C564.886,214.689,573.201,207.566,580.451,200.473z"/>
			<path fill="#FFFFFF" d="M602.114,276.298c0.001,0.003,0.003,0.007,0.004,0.009c-9.011-21.141-14.362-44.211-15.28-68.418
				c0.001,0.02,0.001,0.035,0.002,0.053c-9.342,9.318-20.217,18.559-32.402,27.412c-1.616,15.125-4.144,29.405-7.607,42.264
				C570.578,283.045,590.32,282.822,602.114,276.298z"/>
			<path fill="#FFFFFF" d="M444.192,113.908c11.353-35.605,29.461-58.781,49.945-58.781c20.487,0,38.6,23.158,49.933,58.791
				c25.725-5.625,47.771-5.244,62.146,1.666c8.161-16.725,18.65-32.105,31.062-45.705C601.848,31.056,550.84,6.696,494.138,6.696
				c-56.698,0-107.708,24.36-143.135,63.183c12.411,13.6,22.9,28.981,31.062,45.707
				C396.438,108.678,418.479,108.294,444.192,113.908z"/>
			<path fill="#FFFFFF" d="M544.086,286.932c-11.35,35.614-29.46,58.791-49.947,58.791c-20.483,0-38.594-23.16-49.922-58.798
				c-25.725,5.626-47.773,5.247-62.152-1.661c-8.162,16.727-18.65,32.104-31.061,45.705c35.428,38.823,86.437,63.188,143.135,63.188
				c56.701,0,107.71-24.362,143.141-63.188c-12.411-13.6-22.9-28.979-31.062-45.705C591.845,292.17,569.806,292.552,544.086,286.932
				z"/>
			<path fill="#FFFFFF" d="M441.48,277.602c-3.473-12.894-6.125-27.119-7.733-42.312c-12.149-8.847-22.976-18.088-32.306-27.388
				c-0.92,24.199-6.271,47.264-15.276,68.396C397.963,282.825,417.72,283.041,441.48,277.602z"/>
			<path fill="#FFFFFF" d="M494.139,65.505c-16.394,0-30.989,19.821-40.497,50.694c12.857,3.424,26.491,8.384,40.396,14.54
				c13.983-6.219,27.642-11.082,40.562-14.528C525.099,85.349,510.528,65.505,494.139,65.505z"/>
			<path fill="#FFFFFF" d="M444.985,157.753c5.794-3.854,11.752-7.643,18.02-11.26c6.261-3.613,12.521-6.881,18.759-9.98
				c-10.637-4.44-21.019-8.146-30.808-10.877C448.432,135.478,446.45,146.317,444.985,157.753z"/>
			<path fill="#FFFFFF" d="M543.348,157.785c-1.477-11.49-3.558-22.244-6.087-32.131c-9.777,2.733-20.104,6.374-30.722,10.814
				c6.221,3.077,12.479,6.42,18.735,10.024C531.559,150.125,537.528,153.925,543.348,157.785z"/>
			<path fill="#FFFFFF" d="M441.45,123.233c-23.747-5.424-43.492-5.206-55.285,1.314c-0.001-0.002-0.002-0.004-0.003-0.006
				c9.003,21.124,14.354,44.175,15.277,68.363c9.341-9.314,20.218-18.554,32.399-27.418
				C435.461,150.378,437.985,136.082,441.45,123.233z"/>
			<path fill="#FFFFFF" d="M407.827,200.375c7.298,7.146,15.565,14.314,24.785,21.338c-0.438-6.966-0.746-14.041-0.746-21.288
				c0-7.231,0.243-14.315,0.682-21.243C423.395,186.158,415.078,193.277,407.827,200.375z"/>
		</g>
		<path fill="#FFFFFF" d="M544.779,171.186c-7.766-5.406-15.988-10.673-24.688-15.701c-8.764-5.062-17.47-9.434-26.089-13.471
			c-8.519,4.002-17.156,8.471-25.812,13.471c-8.654,4.998-16.844,10.239-24.563,15.616c-0.816,9.475-1.378,19.202-1.378,29.324
			c0,10.045,0.455,19.812,1.254,29.233c7.762,5.406,15.985,10.678,24.688,15.703c8.763,5.061,17.473,9.437,26.084,13.47
			c8.521-4.002,17.162-8.465,25.816-13.47c8.652-4.996,16.843-10.239,24.565-15.62c0.813-9.476,1.374-19.201,1.374-29.316
			C546.03,190.373,545.575,180.612,544.779,171.186z M494.139,210.799c-5.729,0-10.375-4.646-10.375-10.374
			c0-5.735,4.646-10.384,10.375-10.384c5.73,0,10.378,4.648,10.378,10.384C504.517,206.152,499.869,210.799,494.139,210.799z"/>
		<path fill="#FFFFFF" d="M401.439,192.905c-0.15,0.149-0.31,0.299-0.457,0.448c-21.982-23.661-31.879-46.199-23.688-60.392
			c2.016-3.493,5.021-6.287,8.868-8.414c-1.291-3.029-2.662-6.016-4.1-8.963c-6.037,2.901-10.73,6.945-13.76,12.191
			c-10.239,17.744,0.763,44.996,25.958,72.628c-25.176,27.641-36.196,54.926-25.958,72.67c3.03,5.245,7.723,9.288,13.759,12.188
			c1.439-2.946,2.81-5.935,4.101-8.965c-3.847-2.128-6.852-4.924-8.868-8.417c-8.201-14.208,1.676-36.766,23.67-60.443
			c0.155,0.154,0.318,0.312,0.476,0.465"/>
	</g>
</g>
<path fill="#FFFFFF" d="M619.973,273.074c10.242-17.74-0.762-45.003-25.958-72.637c25.182-27.641,36.2-54.918,25.958-72.662
	c-2.988-5.176-7.603-9.178-13.523-12.07c-1.424,2.962-2.77,5.968-4.045,9.012c3.706,2.106,6.614,4.842,8.581,8.245
	c8.168,14.148-1.606,36.587-23.417,60.164c-0.066,2.074-0.111,4.154-0.111,6.245c0,2.853,0.074,5.688,0.197,8.511
	c21.729,23.517,31.477,45.886,23.328,60c-1.835,3.179-4.498,5.773-7.862,7.818c1.31,3.046,2.698,6.05,4.158,9.012
	C612.796,281.857,617.128,278.004,619.973,273.074z"/>
</svg>
